999
dxfrw 0.6.3
  0
SECTION
  2
HEADER
  9
$ACADVER
  1
AC1021
  9
$DWGCODEPAGE
  3
ANSI_1252
  9
$INSBASE
 10
0
 20
0
 30
0
  9
$EXTMIN
 10
-1665.974328994295
 20
-230.0029863896327
 30
0
  9
$EXTMAX
 10
1665.974328994295
 20
200
 30
0
  9
$LIMMIN
 10
0
 20
0
  9
$LIMMAX
 10
420
 20
297
  9
$ORTHOMODE
 70
    0
  9
$REGENMODE
 70
    1
  9
$FILLMODE
 70
    1
  9
$QTEXTMODE
 70
    0
  9
$MIRRTEXT
 70
    0
  9
$LTSCALE
 40
1
  9
$ATTMODE
 70
    0
  9
$TEXTSIZE
 40
2.5
  9
$TRACEWID
 40
15.68
  9
$TEXTSTYLE
  7
STANDARD
  9
$CLAYER
  8
0
  9
$CELTYPE
  6
BYLAYER
  9
$CECOLOR
 62
  256
  9
$CELTSCALE
 40
1
  9
$DISPSILH
 70
    0
  9
$DIMSCALE
 40
2.5
  9
$DIMASZ
 40
2.5
  9
$DIMEXO
 40
0.625
  9
$DIMDLI
 40
3.75
  9
$DIMRND
 40
0
  9
$DIMDLE
 40
0
  9
$DIMEXE
 40
1.25
  9
$DIMTP
 40
0
  9
$DIMTM
 40
0
  9
$DIMTXT
 40
2.5
  9
$DIMCEN
 40
2.5
  9
$DIMTSZ
 40
0
  9
$DIMTOL
 70
    0
  9
$DIMLIM
 70
    0
  9
$DIMTIH
 70
    0
  9
$DIMTOH
 70
    0
  9
$DIMSE1
 70
    0
  9
$DIMSE2
 70
    0
  9
$DIMTAD
 70
    1
  9
$DIMZIN
 70
    8
  9
$DIMBLK
  1

  9
$DIMASO
 70
    1
  9
$DIMSHO
 70
    1
  9
$DIMPOST
  1

  9
$DIMAPOST
  1

  9
$DIMALT
 70
    0
  9
$DIMALTD
 70
    3
  9
$DIMALTF
 40
0.03937
  9
$DIMLFAC
 40
1
  9
$DIMTOFL
 70
    1
  9
$DIMTVP
 40
0
  9
$DIMTIX
 70
    0
  9
$DIMSOXD
 70
    0
  9
$DIMSAH
 70
    0
  9
$DIMBLK1
  1

  9
$DIMBLK2
  1

  9
$DIMSTYLE
  2
STANDARD
  9
$DIMCLRD
 70
    0
  9
$DIMCLRE
 70
    0
  9
$DIMCLRT
 70
    0
  9
$DIMTFAC
 40
1
  9
$DIMGAP
 40
0.625
  9
$DIMJUST
 70
    0
  9
$DIMSD1
 70
    0
  9
$DIMSD2
 70
    0
  9
$DIMTOLJ
 70
    0
  9
$DIMTZIN
 70
    8
  9
$DIMALTZ
 70
    0
  9
$DIMALTTZ
 70
    0
  9
$DIMUPT
 70
    0
  9
$DIMDEC
 70
    2
  9
$DIMTDEC
 70
    2
  9
$DIMALTU
 70
    2
  9
$DIMALTTD
 70
    3
  9
$DIMTXSTY
  7
STANDARD
  9
$DIMAUNIT
 70
    0
  9
$DIMADEC
 70
    0
  9
$DIMALTRND
 40
0
  9
$DIMAZIN
 70
    0
  9
$DIMDSEP
 70
   44
  9
$DIMATFIT
 70
    3
  9
$DIMFRAC
 70
    0
  9
$DIMLDRBLK
  1
STANDARD
  9
$DIMLUNIT
 70
    2
  9
$DIMLWD
 70
   -2
  9
$DIMLWE
 70
   -2
  9
$DIMTMOVE
 70
    0
  9
$DIMFXL
 40
1
  9
$DIMFXLON
 70
    0
  9
$DIMJOGANG
 40
0.7854
  9
$DIMTFILL
 70
    0
  9
$DIMTFILLCLR
 70
    0
  9
$DIMARCSYM
 70
    0
  9
$DIMLTYPE
  6

  9
$DIMLTEX1
  6

  9
$DIMLTEX2
  6

  9
$LUNITS
 70
    2
  9
$LUPREC
 70
    4
  9
$SKETCHINC
 40
1
  9
$FILLETRAD
 40
0
  9
$AUNITS
 70
    0
  9
$AUPREC
 70
    2
  9
$MENU
  1
.
  9
$ELEVATION
 40
0
  9
$PELEVATION
 40
0
  9
$THICKNESS
 40
0
  9
$LIMCHECK
 70
    0
  9
$CHAMFERA
 40
0
  9
$CHAMFERB
 40
0
  9
$CHAMFERC
 40
0
  9
$CHAMFERD
 40
0
  9
$SKPOLY
 70
    0
  9
$USRTIMER
 70
    1
  9
$ANGBASE
 50
0
  9
$ANGDIR
 70
    0
  9
$PDMODE
 70
   34
  9
$PDSIZE
 40
0
  9
$PLINEWID
 40
0
  9
$SPLFRAME
 70
    0
  9
$SPLINETYPE
 70
    2
  9
$SPLINESEGS
 70
    8
  9
$HANDSEED
  5
20000
  9
$SURFTAB1
 70
    6
  9
$SURFTAB2
 70
    6
  9
$SURFTYPE
 70
    6
  9
$SURFU
 70
    6
  9
$SURFV
 70
    6
  9
$UCSBASE
  2

  9
$UCSNAME
  2

  9
$UCSORG
 10
0
 20
0
 30
0
  9
$UCSXDIR
 10
1
 20
0
 30
0
  9
$UCSYDIR
 10
0
 20
1
 30
0
  9
$UCSORTHOREF
  2

  9
$UCSORTHOVIEW
 70
    0
  9
$UCSORGTOP
 10
0
 20
0
 30
0
  9
$UCSORGBOTTOM
 10
0
 20
0
 30
0
  9
$UCSORGLEFT
 10
0
 20
0
 30
0
  9
$UCSORGRIGHT
 10
0
 20
0
 30
0
  9
$UCSORGFRONT
 10
0
 20
0
 30
0
  9
$UCSORGBACK
 10
0
 20
0
 30
0
  9
$PUCSBASE
  2

  9
$PUCSNAME
  2

  9
$PUCSORG
 10
0
 20
0
 30
0
  9
$PUCSXDIR
 10
1
 20
0
 30
0
  9
$PUCSYDIR
 10
0
 20
1
 30
0
  9
$PUCSORTHOREF
  2

  9
$PUCSORTHOVIEW
 70
    0
  9
$PUCSORGTOP
 10
0
 20
0
 30
0
  9
$PUCSORGBOTTOM
 10
0
 20
0
 30
0
  9
$PUCSORGLEFT
 10
0
 20
0
 30
0
  9
$PUCSORGRIGHT
 10
0
 20
0
 30
0
  9
$PUCSORGFRONT
 10
0
 20
0
 30
0
  9
$PUCSORGBACK
 10
0
 20
0
 30
0
  9
$USERI1
 70
    0
  9
$USERI2
 70
    0
  9
$USERI3
 70
    0
  9
$USERI4
 70
    0
  9
$USERI5
 70
    0
  9
$USERR1
 40
0
  9
$USERR2
 40
0
  9
$USERR3
 40
0
  9
$USERR4
 40
0
  9
$USERR5
 40
0
  9
$WORLDVIEW
 70
    1
  9
$SHADEDGE
 70
    3
  9
$SHADEDIF
 70
   70
  9
$TILEMODE
 70
    1
  9
$MAXACTVP
 70
   64
  9
$PINSBASE
 10
0
 20
0
 30
0
  9
$PLIMCHECK
 70
    0
  9
$PEXTMIN
 10
0
 20
0
 30
0
  9
$PEXTMAX
 10
0
 20
0
 30
0
  9
$GRIDMODE
 70
    1
  9
$SNAPSTYLE
 70
    0
  9
$PLIMMIN
 10
0
 20
0
  9
$PLIMMAX
 10
210
 20
297
  9
$UNITMODE
 70
    0
  9
$VISRETAIN
 70
    1
  9
$PLINEGEN
 70
    0
  9
$PSLTSCALE
 70
    1
  9
$TREEDEPTH
 70
 3020
  9
$CMLSTYLE
  2
Standard
  9
$CMLJUST
 70
    0
  9
$CMLSCALE
 40
20
  9
$PROXYGRAPHICS
 70
    1
  9
$MEASUREMENT
 70
    1
  9
$CELWEIGHT
370
   -1
  9
$ENDCAPS
280
    0
  9
$JOINSTYLE
280
    0
  9
$LWDISPLAY
290
    0
  9
$INSUNITS
 70
    4
  9
$HYPERLINKBASE
  1

  9
$STYLESHEET
  1

  9
$XEDIT
290
    1
  9
$CEPSNTYPE
380
    0
  9
$PSTYLEMODE
290
    1
  9
$EXTNAMES
290
    1
  9
$PSVPSCALE
 40
1
  9
$OLESTARTUP
290
    0
  9
$SORTENTS
280
  127
  9
$INDEXCTL
280
    0
  9
$HIDETEXT
280
    1
  9
$XCLIPFRAME
290
    0
  9
$HALOGAP
280
    0
  9
$OBSCOLOR
 70
  257
  9
$OBSLTYPE
280
    0
  9
$INTERSECTIONDISPLAY
280
    0
  9
$INTERSECTIONCOLOR
 70
  257
  9
$DIMASSOC
280
    1
  9
$PROJECTNAME
  1

  9
$CAMERADISPLAY
290
    0
  9
$LENSLENGTH
 40
50
  9
$CAMERAHEIGHT
 40
0
  9
$STEPSPERSEC
 40
2
  9
$STEPSIZE
 40
50
  9
$3DDWFPREC
 40
2
  9
$PSOLWIDTH
 40
5
  9
$PSOLHEIGHT
 40
80
  9
$LOFTANG1
 40
1.570796326794897
  9
$LOFTANG2
 40
1.570796326794897
  9
$LOFTMAG1
 40
0
  9
$LOFTMAG2
 40
0
  9
$LOFTPARAM
 70
    7
  9
$LOFTNORMALS
280
    1
  9
$LATITUDE
 40
1
  9
$LONGITUDE
 40
1
  9
$NORTHDIRECTION
 40
0
  9
$TIMEZONE
 70
-8000
  9
$LIGHTGLYPHDISPLAY
280
    1
  9
$TILEMODELIGHTSYNCH
280
    1
  9
$SOLIDHIST
280
    1
  9
$SHOWHIST
280
    1
  9
$DWFFRAME
280
    2
  9
$DGNFRAME
280
    0
  9
$REALWORLDSCALE
290
    1
  9
$INTERFERECOLOR
 62
    1
  9
$CSHADOW
280
    0
  9
$SHADOWPLANELOCATION
 40
0
  0
ENDSEC
  0
SECTION
  2
CLASSES
  0
ENDSEC
  0
SECTION
  2
TABLES
  0
TABLE
  2
VPORT
  5
8
330
0
100
AcDbSymbolTable
 70
    1
  0
VPORT
  5
31
330
2
100
AcDbSymbolTableRecord
100
AcDbViewportTableRecord
  2
*ACTIVE
 70
    0
 10
0
 20
0
 11
1
 21
1
 12
935.4728749100058
 22
453.0687442943931
 13
0
 23
0
 14
10
 24
10
 15
10
 25
10
 16
0
 26
0
 36
1
 17
0
 27
0
 37
0
 40
2757.526314194651
 41
1.508274231678487
 42
50
 43
0
 44
0
 50
0
 51
0
 71
    0
 72
  100
 73
    1
 74
    3
 75
    0
 76
    1
 77
    0
 78
    0
281
    0
 65
    1
110
0
120
0
130
0
111
1
121
0
131
0
112
0
122
1
132
0
 79
    0
146
0
348
10020
 60
    7
 61
    5
292
1
282
    1
141
0
142
0
 63
  250
421
3358443
  0
ENDTAB
  0
TABLE
  2
LTYPE
  5
5
330
0
100
AcDbSymbolTable
 70
    4
  0
LTYPE
  5
14
330
5
100
AcDbSymbolTableRecord
100
AcDbLinetypeTableRecord
  2
ByBlock
 70
    0
  3

 72
   65
 73
    0
 40
0
  0
LTYPE
  5
15
330
5
100
AcDbSymbolTableRecord
100
AcDbLinetypeTableRecord
  2
ByLayer
 70
    0
  3

 72
   65
 73
    0
 40
0
  0
LTYPE
  5
16
330
5
100
AcDbSymbolTableRecord
100
AcDbLinetypeTableRecord
  2
Continuous
 70
    0
  3
Solid line
 72
   65
 73
    0
 40
0
  0
LTYPE
  5
32
330
5
100
AcDbSymbolTableRecord
100
AcDbLinetypeTableRecord
  2
DOT
 70
    0
  3
Dot . . . . . . . . . . . . . . . . . . . . . .
 72
   65
 73
    2
 40
6.35
 49
0
 74
    0
 49
-6.35
 74
    0
  0
LTYPE
  5
33
330
5
100
AcDbSymbolTableRecord
100
AcDbLinetypeTableRecord
  2
DOTTINY
 70
    0
  3
Dot (.15x) .....................................
 72
   65
 73
    2
 40
0.9525
 49
0
 74
    0
 49
-0.9525
 74
    0
  0
LTYPE
  5
34
330
5
100
AcDbSymbolTableRecord
100
AcDbLinetypeTableRecord
  2
DOT2
 70
    0
  3
Dot (.5x) .....................................
 72
   65
 73
    2
 40
3.175
 49
0
 74
    0
 49
-3.175
 74
    0
  0
LTYPE
  5
35
330
5
100
AcDbSymbolTableRecord
100
AcDbLinetypeTableRecord
  2
DOTX2
 70
    0
  3
Dot (2x) .  .  .  .  .  .  .  .  .  .  .  .  .
 72
   65
 73
    2
 40
12.7
 49
0
 74
    0
 49
-12.7
 74
    0
  0
LTYPE
  5
36
330
5
100
AcDbSymbolTableRecord
100
AcDbLinetypeTableRecord
  2
DASHED
 70
    0
  3
Dashed _ _ _ _ _ _ _ _ _ _ _ _ _ _ _ _ _
 72
   65
 73
    2
 40
19.05
 49
12.7
 74
    0
 49
-6.35
 74
    0
  0
LTYPE
  5
37
330
5
100
AcDbSymbolTableRecord
100
AcDbLinetypeTableRecord
  2
DASHEDTINY
 70
    0
  3
Dashed (.15x) _ _ _ _ _ _ _ _ _ _ _ _ _ _ _ _ _
 72
   65
 73
    2
 40
2.8575
 49
1.905
 74
    0
 49
-0.9525
 74
    0
  0
LTYPE
  5
38
330
5
100
AcDbSymbolTableRecord
100
AcDbLinetypeTableRecord
  2
DASHED2
 70
    0
  3
Dashed (.5x) _ _ _ _ _ _ _ _ _ _ _ _ _ _ _ _ _
 72
   65
 73
    2
 40
9.524999999999999
 49
6.35
 74
    0
 49
-3.175
 74
    0
  0
LTYPE
  5
39
330
5
100
AcDbSymbolTableRecord
100
AcDbLinetypeTableRecord
  2
DASHEDX2
 70
    0
  3
Dashed (2x) ____  ____  ____  ____  ____  ___
 72
   65
 73
    2
 40
38.09999999999999
 49
25.4
 74
    0
 49
-12.7
 74
    0
  0
LTYPE
  5
3A
330
5
100
AcDbSymbolTableRecord
100
AcDbLinetypeTableRecord
  2
DASHDOT
 70
    0
  3
Dash dot __ . __ . __ . __ . __ . __ . __ . __
 72
   65
 73
    4
 40
25.4
 49
12.7
 74
    0
 49
-6.35
 74
    0
 49
0
 74
    0
 49
-6.35
 74
    0
  0
LTYPE
  5
3B
330
5
100
AcDbSymbolTableRecord
100
AcDbLinetypeTableRecord
  2
DASHDOTTINY
 70
    0
  3
Dash dot (.15x) _._._._._._._._._._._._._._._.
 72
   65
 73
    4
 40
3.81
 49
1.905
 74
    0
 49
-0.9525
 74
    0
 49
0
 74
    0
 49
-0.9525
 74
    0
  0
LTYPE
  5
3C
330
5
100
AcDbSymbolTableRecord
100
AcDbLinetypeTableRecord
  2
DASHDOT2
 70
    0
  3
Dash dot (.5x) _._._._._._._._._._._._._._._.
 72
   65
 73
    4
 40
12.7
 49
6.35
 74
    0
 49
-3.175
 74
    0
 49
0
 74
    0
 49
-3.175
 74
    0
  0
LTYPE
  5
3D
330
5
100
AcDbSymbolTableRecord
100
AcDbLinetypeTableRecord
  2
DASHDOTX2
 70
    0
  3
Dash dot (2x) ____  .  ____  .  ____  .  ___
 72
   65
 73
    4
 40
50.8
 49
25.4
 74
    0
 49
-12.7
 74
    0
 49
0
 74
    0
 49
-12.7
 74
    0
  0
LTYPE
  5
3E
330
5
100
AcDbSymbolTableRecord
100
AcDbLinetypeTableRecord
  2
DIVIDE
 70
    0
  3
Divide ____ . . ____ . . ____ . . ____ . . ____
 72
   65
 73
    6
 40
31.75
 49
12.7
 74
    0
 49
-6.35
 74
    0
 49
0
 74
    0
 49
-6.35
 74
    0
 49
0
 74
    0
 49
-6.35
 74
    0
  0
LTYPE
  5
3F
330
5
100
AcDbSymbolTableRecord
100
AcDbLinetypeTableRecord
  2
DIVIDETINY
 70
    0
  3
Divide (.15x) __..__..__..__..__..__..__..__.._
 72
   65
 73
    6
 40
4.7625
 49
1.905
 74
    0
 49
-0.9525
 74
    0
 49
0
 74
    0
 49
-0.9525
 74
    0
 49
0
 74
    0
 49
-0.9525
 74
    0
  0
LTYPE
  5
40
330
5
100
AcDbSymbolTableRecord
100
AcDbLinetypeTableRecord
  2
DIVIDE2
 70
    0
  3
Divide (.5x) __..__..__..__..__..__..__..__.._
 72
   65
 73
    6
 40
15.875
 49
6.35
 74
    0
 49
-3.175
 74
    0
 49
0
 74
    0
 49
-3.175
 74
    0
 49
0
 74
    0
 49
-3.175
 74
    0
  0
LTYPE
  5
41
330
5
100
AcDbSymbolTableRecord
100
AcDbLinetypeTableRecord
  2
DIVIDEX2
 70
    0
  3
Divide (2x) ________  .  .  ________  .  .  _
 72
   65
 73
    6
 40
63.5
 49
25.4
 74
    0
 49
-12.7
 74
    0
 49
0
 74
    0
 49
-12.7
 74
    0
 49
0
 74
    0
 49
-12.7
 74
    0
  0
LTYPE
  5
42
330
5
100
AcDbSymbolTableRecord
100
AcDbLinetypeTableRecord
  2
BORDER
 70
    0
  3
Border __ __ . __ __ . __ __ . __ __ . __ __ .
 72
   65
 73
    6
 40
44.45
 49
12.7
 74
    0
 49
-6.35
 74
    0
 49
12.7
 74
    0
 49
-6.35
 74
    0
 49
0
 74
    0
 49
-6.35
 74
    0
  0
LTYPE
  5
43
330
5
100
AcDbSymbolTableRecord
100
AcDbLinetypeTableRecord
  2
BORDERTINY
 70
    0
  3
Border (.15x) __.__.__.__.__.__.__.__.__.__.__.
 72
   65
 73
    6
 40
6.6675
 49
1.905
 74
    0
 49
-0.9525
 74
    0
 49
1.905
 74
    0
 49
-0.9525
 74
    0
 49
0
 74
    0
 49
-0.9525
 74
    0
  0
LTYPE
  5
44
330
5
100
AcDbSymbolTableRecord
100
AcDbLinetypeTableRecord
  2
BORDER2
 70
    0
  3
Border (.5x) __.__.__.__.__.__.__.__.__.__.__.
 72
   65
 73
    6
 40
22.225
 49
6.35
 74
    0
 49
-3.175
 74
    0
 49
6.35
 74
    0
 49
-3.175
 74
    0
 49
0
 74
    0
 49
-3.175
 74
    0
  0
LTYPE
  5
45
330
5
100
AcDbSymbolTableRecord
100
AcDbLinetypeTableRecord
  2
BORDERX2
 70
    0
  3
Border (2x) ____  ____  .  ____  ____  .  ___
 72
   65
 73
    6
 40
88.89999999999999
 49
25.4
 74
    0
 49
-12.7
 74
    0
 49
25.4
 74
    0
 49
-12.7
 74
    0
 49
0
 74
    0
 49
-12.7
 74
    0
  0
LTYPE
  5
46
330
5
100
AcDbSymbolTableRecord
100
AcDbLinetypeTableRecord
  2
CENTER
 70
    0
  3
Center ____ _ ____ _ ____ _ ____ _ ____ _ ____
 72
   65
 73
    4
 40
50.8
 49
31.75
 74
    0
 49
-6.35
 74
    0
 49
6.35
 74
    0
 49
-6.35
 74
    0
  0
LTYPE
  5
47
330
5
100
AcDbSymbolTableRecord
100
AcDbLinetypeTableRecord
  2
CENTERTINY
 70
    0
  3
Center (.15x) ___ _ ___ _ ___ _ ___ _ ___ _ ___
 72
   65
 73
    4
 40
7.619999999999999
 49
4.7625
 74
    0
 49
-0.9525
 74
    0
 49
0.9525
 74
    0
 49
-0.9525
 74
    0
  0
LTYPE
  5
48
330
5
100
AcDbSymbolTableRecord
100
AcDbLinetypeTableRecord
  2
CENTER2
 70
    0
  3
Center (.5x) ___ _ ___ _ ___ _ ___ _ ___ _ ___
 72
   65
 73
    4
 40
28.575
 49
19.05
 74
    0
 49
-3.175
 74
    0
 49
3.175
 74
    0
 49
-3.175
 74
    0
  0
LTYPE
  5
49
330
5
100
AcDbSymbolTableRecord
100
AcDbLinetypeTableRecord
  2
CENTERX2
 70
    0
  3
Center (2x) ________  __  ________  __  _____
 72
   65
 73
    4
 40
101.6
 49
63.5
 74
    0
 49
-12.7
 74
    0
 49
12.7
 74
    0
 49
-12.7
 74
    0
  0
ENDTAB
  0
TABLE
  2
LAYER
  5
2
330
0
100
AcDbSymbolTable
 70
    1
  0
LAYER
  5
10
330
2
100
AcDbSymbolTableRecord
100
AcDbLayerTableRecord
  2
0
 70
    0
 62
    7
  6
CONTINUOUS
370
    0
390
F
  0
ENDTAB
  0
TABLE
  2
STYLE
  5
3
330
0
100
AcDbSymbolTable
 70
    3
  0
STYLE
  5
4A
330
2
100
AcDbSymbolTableRecord
100
AcDbTextStyleTableRecord
  2
Standard
 70
    0
 40
0
 41
1
 50
0
 71
    0
 42
1
  3
txt
  4

  0
ENDTAB
  0
TABLE
  2
VIEW
  5
6
330
0
100
AcDbSymbolTable
 70
    0
  0
ENDTAB
  0
TABLE
  2
UCS
  5
7
330
0
100
AcDbSymbolTable
 70
    0
  0
ENDTAB
  0
TABLE
  2
APPID
  5
9
330
0
100
AcDbSymbolTable
 70
    1
  0
APPID
  5
12
330
9
100
AcDbSymbolTableRecord
100
AcDbRegAppTableRecord
  2
ACAD
 70
    0
  0
APPID
  5
4B
330
9
100
AcDbSymbolTableRecord
100
AcDbRegAppTableRecord
  2
LibreCad
 70
    0
  0
ENDTAB
  0
TABLE
  2
DIMSTYLE
  5
A
330
0
100
AcDbSymbolTable
 70
    1
100
AcDbDimStyleTable
 71
    1
  0
DIMSTYLE
105
4C
330
A
100
AcDbSymbolTableRecord
100
AcDbDimStyleTableRecord
  2
Standard
 70
    0
 40
2.5
 41
2.5
 42
0.625
 43
0.38
 44
1.25
 45
0
 46
0
 47
0
 48
0
 49
1
140
2.5
141
0.09
142
0
143
25.4
144
1
145
0
146
1
147
0.625
148
0
 71
    0
 72
    0
 73
    0
 74
    1
 75
    0
 76
    0
 77
    0
 78
    8
 79
    0
170
    0
171
    2
172
    0
173
    0
174
    0
175
    0
176
    0
177
    0
178
    0
179
    0
271
    2
272
    4
273
    2
274
    2
275
    0
276
    0
277
    2
278
   44
279
    0
280
    0
281
    0
282
    0
283
    1
284
    0
285
    0
286
    0
288
    0
289
    3
340
STANDARD
341

371
   -2
372
   -2
  0
ENDTAB
  0
TABLE
  2
BLOCK_RECORD
  5
1
330
0
100
AcDbSymbolTable
 70
    2
  0
BLOCK_RECORD
  5
1F
330
1
100
AcDbSymbolTableRecord
100
AcDbBlockTableRecord
  2
*Model_Space
 70
    0
280
    1
281
    0
  0
BLOCK_RECORD
  5
1E
330
1
100
AcDbSymbolTableRecord
100
AcDbBlockTableRecord
  2
*Paper_Space
 70
    0
280
    1
281
    0
  0
ENDTAB
  0
ENDSEC
  0
SECTION
  2
BLOCKS
  0
BLOCK
  5
20
330
1F
100
AcDbEntity
  8
0
100
AcDbBlockBegin
  2
*Model_Space
 70
    0
 10
0
 20
0
 30
0
  3
*Model_Space
  1

  0
ENDBLK
  5
21
330
1F
100
AcDbEntity
  8
0
100
AcDbBlockEnd
  0
BLOCK
  5
1C
330
1B
100
AcDbEntity
  8
0
100
AcDbBlockBegin
  2
*Paper_Space
 70
    0
 10
0
 20
0
 30
0
  3
*Paper_Space
  1

  0
ENDBLK
  5
1D
330
1F
100
AcDbEntity
  8
0
100
AcDbBlockEnd
  0
ENDSEC
  0
SECTION
  2
ENTITIES
  0
LWPOLYLINE
  5
4D
100
AcDbEntity
  8
0
  6
CONTINUOUS
 62
  256
370
   -1
100
AcDbPolyline
 90
    3
 70
    1
 43
0
 10
-63.91303922175524
 20
60.8054712411419
 42
0.3054293445087644
 10
-130.0655242228636
 20
13.48666080257362
 42
-0.2419147195329684
 10
-69.60051755134215
 20
93.57148178950858
 42
0.05598168275563364
  0
ARC
  5
4E
100
AcDbEntity
  8
0
  6
ByLayer
 62
  256
370
  200
100
AcDbCircle
 10
-1560
 20
-22.7778
 40
177.661
100
AcDbArc
 50
250.262
 51
334.236
  0
ARC
  5
4F
100
AcDbEntity
  8
0
  6
ByLayer
 62
  256
370
  200
100
AcDbCircle
 10
-1561.86
 20
12.0656
 40
240.208
100
AcDbArc
 50
253.489
 51
333.653
  0
ARC
  5
50
100
AcDbEntity
  8
0
  6
ByLayer
 62
  256
370
  200
100
AcDbCircle
 10
-1480
 20
-435
 40
248.244
100
AcDbArc
 50
71.20010000000001
 51
92.85760000000001
  0
ARC
  5
51
100
AcDbEntity
  8
0
  6
ByLayer
 62
  256
370
  200
100
AcDbCircle
 10
-1479.35
 20
-461.072
 40
244.317
100
AcDbArc
 50
71.0476
 51
92.36669999999999
  0
ARC
  5
52
100
AcDbEntity
  8
0
  6
ByLayer
 62
  256
370
  200
100
AcDbCircle
 10
-1000
 20
600
 40
806.226
100
AcDbArc
 50
240.255
 51
299.745
  0
ARC
  5
53
100
AcDbEntity
  8
0
  6
ByLayer
 62
  256
370
  200
100
AcDbCircle
 10
-1000
 20
-900
 40
806.226
100
AcDbArc
 50
60.25510000000002
 51
119.745
  0
ARC
  5
54
100
AcDbEntity
  8
0
  6
ByLayer
 62
  256
370
  200
100
AcDbCircle
 10
-1003.07
 20
-918.424
 40
794.6559999999999
100
AcDbArc
 50
71.276
 51
119.967
  0
ARC
  5
55
100
AcDbEntity
  8
0
  6
ByLayer
 62
  256
370
  200
100
AcDbCircle
 10
-1000
 20
600
 40
776.226
100
AcDbArc
 50
243.479
 51
288.946
  0
LINE
  5
56
100
AcDbEntity
  8
0
  6
ByLayer
 62
  256
370
  200
100
AcDbLine
 10
-747.9829999999999
 20
-165.825
 11
-603.928
 21
-170.258
  0
LINE
  5
57
100
AcDbEntity
  8
0
  6
ByLayer
 62
  256
370
  200
100
AcDbLine
 10
-747.9829999999999
 20
-134.175
 11
-612.6849999999999
 21
-127.186
  0
ARC
  5
58
100
AcDbEntity
  8
0
  6
ByLayer
 62
  256
370
  200
100
AcDbCircle
 10
-471.45
 20
175.495
 40
334.011
100
AcDbArc
 50
244.986
 51
324.6
  0
ARC
  5
59
100
AcDbEntity
  8
0
  6
ByLayer
 62
  256
370
  200
100
AcDbCircle
 10
-295.067
 20
-2508.93
 40
2358.98
100
AcDbArc
 50
85.867
 51
97.52330000000001
  0
ARC
  5
5A
100
AcDbEntity
  8
0
  6
ByLayer
 62
  256
370
  200
100
AcDbCircle
 10
-295.067
 20
-2508.93
 40
2328.98
100
AcDbArc
 50
84.07429999999999
 51
97.52330000000001
  0
ARC
  5
5B
100
AcDbEntity
  8
0
  6
ByLayer
 62
  256
370
  200
100
AcDbCircle
 10
-471.45
 20
175.495
 40
304.011
100
AcDbArc
 50
244.986
 51
336.721
  0
CIRCLE
  5
5C
100
AcDbEntity
  8
0
  6
ByLayer
 62
  256
370
  200
100
AcDbCircle
 10
0
 20
0
 40
200
  0
CIRCLE
  5
5D
100
AcDbEntity
  8
0
  6
ByLayer
 62
  256
370
  200
100
AcDbCircle
 10
8.93354e-13
 20
6.15162e-13
 40
170
  0
LWPOLYLINE
  5
5E
100
AcDbEntity
  8
0
  6
CONTINUOUS
 62
  256
370
  140
100
AcDbPolyline
 90
   17
 70
    1
 43
0
 10
128.9280289485614
 20
-75.00289093766132
 42
-0.08624099338568039
 10
141.6893079732932
 20
-81.00880799709049
 42
0.1833722832273701
 10
139.2468305134388
 20
-50.83204187189463
 42
-0.02836842649250492
 10
153.3308670454471
 20
-54.94170476577001
 42
0.134237164911075
 10
144.5152747534585
 20
-25.88941238777258
 42
-0.04091158599585694
 10
159.4360194210676
 20
-27.28427796787927
 42
0.2612489738511837
 10
105.0228450341835
 20
26.99109024147698
 42
0.1669719432294125
 10
35.85027732049819
 20
19.76871567728401
 42
0.3045872777915289
 10
64.64174713185824
 20
120.7313763162464
 42
0.1568115285517025
 10
26.16240109932617
 20
98.56456567030096
 42
0.1316737414423765
 10
-38.76371985110723
 20
109.1548820012635
 42
0.1182218204412622
 10
-62.86441076575607
 20
120.953489497327
 42
0.1920638118027538
 10
-69.01399655052893
 20
100.0571609903465
 42
0.2291358214097245
 10
-131.376763682029
 20
29.95772778067176
 42
0.5376847141300258
 10
-18.8558417247233
 20
-119.0647004291861
 42
0.2349761441415095
 10
62.01182581366007
 20
-82.1002283061755
 42
-0.2388786878885582
 10
126.4219827142942
 20
-104.3039487045285
 42
0.1443463919084056
  0
LWPOLYLINE
  5
5F
100
AcDbEntity
  8
0
  6
CONTINUOUS
 62
  256
370
  140
100
AcDbPolyline
 90
    6
 70
    1
 43
0
 10
153.5352607275489
 20
-20.62979298836615
 42
0.3488907534120133
 10
67.60101413948092
 20
-66.23389567251547
 42
-0.641772951634714
 10
-126.6530364418839
 20
-38.38101014145803
 42
0.6734067378809726
 10
3.517178436930237
 20
-26.74232410589965
 42
-0.2506274006833925
 10
61.81578230975887
 20
22.6732264885574
 42
-0.3321162550382371
 10
153.5619207730404
 20
-20.3632574697522
 42
-0.3041779009834646
  0
LWPOLYLINE
  5
60
100
AcDbEntity
  8
0
  6
CONTINUOUS
 62
  256
370
  140
100
AcDbPolyline
 90
    3
 70
    1
 43
0
 10
123.0805903460257
 20
-71.69785886996482
 42
0.2073470539217055
 10
67.39662045737973
 20
-75.69588119527833
 42
-0.175421883633167
 10
124.5557795298889
 20
-96.39675022238157
 42
0.07342193732600076
  0
LWPOLYLINE
  5
61
100
AcDbEntity
  8
0
  6
CONTINUOUS
 62
  256
370
  140
100
AcDbPolyline
 90
    4
 70
    0
 43
0
 10
138.3656889686857
 20
-72.62184588012094
 42
0.1053631525021844
 10
132.7493040937428
 20
-50.05523419637507
 42
0.2141525243932297
 10
74.27491415225342
 20
-65.15887226672174
 42
-0.1788506169565923
 10
138.3656889686857
 20
-72.62184588012107
 42
-0.1788506169565923
  0
LWPOLYLINE
  5
62
100
AcDbEntity
  8
0
  6
CONTINUOUS
 62
  256
370
  140
100
AcDbPolyline
 90
    3
 70
    1
 43
0
 10
148.8697508084701
 20
-47.83411134605122
 42
0.06549609849022296
 10
138.2945955140416
 20
-25.69395440130866
 42
0.193717425432046
 10
83.30378680817452
 20
-52.38297185151004
 42
-0.1814495197825036
  0
LWPOLYLINE
  5
63
100
AcDbEntity
  8
0
  6
CONTINUOUS
 62
  256
370
  140
100
AcDbPolyline
 90
    5
 70
    1
 43
0
 10
-46.4418168687923
 20
30.34942821816576
 42
0.1230092137191044
 10
8.384404281969182e-13
 20
6.110667527536862e-13
 10
22.05675213556863
 20
10.32378081234913
 42
0.1026089791418955
 10
-7.535908150330336
 20
-34.61398456867857
 42
-0.1216750939168523
 10
-28.18856455667875
 20
-60.09471085377897
 42
-0.5171317636558073
  0
LWPOLYLINE
  5
64
100
AcDbEntity
  8
0
  6
CONTINUOUS
 62
  256
370
  120
100
AcDbPolyline
 90
    3
 70
    1
 43
0
 10
-61.67359540046896
 20
55.01278080450735
 10
-49.88985039805956
 20
35.04044080109659
 42
0.4921097185407057
 10
-33.57389570402858
 20
-63.23982220767269
 42
-1.332219834527901
  0
LWPOLYLINE
  5
65
100
AcDbEntity
  8
0
  6
CONTINUOUS
 62
  256
370
  140
100
AcDbPolyline
 90
    2
 70
    1
 43
0
 10
-61.06930103599481
 20
69.37012270824486
 42
-0.2355033101925768
 10
-5.225370874399559
 20
7.498512379475116
 42
-0.2389013919625343
  0
LWPOLYLINE
  5
66
100
AcDbEntity
  8
0
  6
CONTINUOUS
 62
  256
370
  140
100
AcDbPolyline
 90
    2
 70
    1
 43
0
 10
60.8915673993866
 20
69.37012270824465
 42
0.2355033101925768
 10
5.047637237791328
 20
7.498512379475102
 42
0.2389013919625341
  0
LWPOLYLINE
  5
67
100
AcDbEntity
  8
0
  6
CONTINUOUS
 62
  256
370
  140
100
AcDbPolyline
 90
    3
 70
    1
 43
0
 10
57.24802589081683
 20
74.02559652509984
 42
0.2088295027786445
 10
-0.08886681830405507
 20
10.71469827869121
 42
0.225577376243855
 10
-56.64373152633954
 20
74.22105451156483
 42
-0.3287310629261121
  0
LWPOLYLINE
  5
68
100
AcDbEntity
  8
0
  6
CONTINUOUS
 62
  256
370
  140
100
AcDbPolyline
 90
    3
 70
    1
 43
0
 10
62.08238276467385
 20
77.22401378798631
 42
0.1442339162423513
 10
60.66051367179379
 20
114.8587262694174
 42
0.1241659669347684
 10
29.29051506172841
 20
93.3937909459614
 42
-0.05589181244003797
  0
LWPOLYLINE
  5
69
100
AcDbEntity
  8
0
  6
CONTINUOUS
 62
  256
370
  140
100
AcDbPolyline
 90
    3
 70
    1
 43
0
 10
15.30287198631987
 20
96.94758840252773
 42
0.09221925173010374
 10
-23.30088954990271
 20
95.52606912121817
 42
0.06535877781802847
 10
-31.74323924694484
 20
103.5221137718455
 42
-0.1197311749731615
  0
LWPOLYLINE
  5
6A
100
AcDbEntity
  8
0
  6
CONTINUOUS
 62
  256
370
  140
100
AcDbPolyline
 90
    3
 70
    1
 43
0
 10
-61.74325347347101
 20
77.22401378798637
 42
-0.1442339162423511
 10
-60.32138438059086
 20
114.8587262694174
 42
-0.1241659669347684
 10
-28.95138577052565
 20
93.39379094596131
 42
0.05589181244003786
  0
ARC
  5
6B
100
AcDbEntity
  8
0
  6
ByLayer
 62
  256
370
  200
100
AcDbCircle
 10
-1611.004197473631
 20
-166.7007365600466
 40
54.97013152066362
100
AcDbArc
 50
121.8355394669517
 51
249.6425574813351
  0
ARC
  5
6C
100
AcDbEntity
  8
0
  6
ByLayer
 62
  256
370
  200
100
AcDbCircle
 10
-1613.08554658813
 20
-150.1281512489504
 40
40.39917449824132
100
AcDbArc
 50
131.7754473868439
 51
259.5824654012278
  0
ARC
  5
6D
100
AcDbEntity
  8
0
  6
ByLayer
 62
  256
370
  200
100
AcDbCircle
 10
-1561.86
 20
12.0656
 40
238.208
100
AcDbArc
 50
253.489
 51
333.653
  0
ARC
  5
6E
100
AcDbEntity
  8
0
  6
ByLayer
 62
  256
370
  200
100
AcDbCircle
 10
-1611.004197473631
 20
-166.7007365600466
 40
52.97013152066362
100
AcDbArc
 50
121.8355394669517
 51
249.6425574813351
  0
ARC
  5
6F
100
AcDbEntity
  8
0
  6
ByLayer
 62
  256
370
  200
100
AcDbCircle
 10
-1613.08554658813
 20
-150.1281512489504
 40
42.39917449824132
100
AcDbArc
 50
131.7754473868439
 51
259.5824654012278
  0
ARC
  5
70
100
AcDbEntity
  8
0
  6
ByLayer
 62
  256
370
  200
100
AcDbCircle
 10
-1560
 20
-22.7778
 40
179.661
100
AcDbArc
 50
250.262
 51
334.236
  0
ARC
  5
71
100
AcDbEntity
  8
0
  6
ByLayer
 62
  256
370
  200
100
AcDbCircle
 10
-1480
 20
-435
 40
246.244
100
AcDbArc
 50
71.20010000000001
 51
92.85760000000001
  0
ARC
  5
72
100
AcDbEntity
  8
0
  6
ByLayer
 62
  256
370
  200
100
AcDbCircle
 10
-1000
 20
-900
 40
804.226
100
AcDbArc
 50
60.25510000000002
 51
119.745
  0
ARC
  5
73
100
AcDbEntity
  8
0
  6
ByLayer
 62
  256
370
  200
100
AcDbCircle
 10
-1479.35
 20
-461.072
 40
246.317
100
AcDbArc
 50
71.0476
 51
92.36669999999999
  0
ARC
  5
74
100
AcDbEntity
  8
0
  6
ByLayer
 62
  256
370
  200
100
AcDbCircle
 10
-1003.07
 20
-918.424
 40
796.6559999999999
100
AcDbArc
 50
71.276
 51
119.967
  0
ARC
  5
75
100
AcDbEntity
  8
0
  6
ByLayer
 62
  256
370
  200
100
AcDbCircle
 10
-1000
 20
600
 40
804.226
100
AcDbArc
 50
240.255
 51
299.745
  0
ARC
  5
76
100
AcDbEntity
  8
0
  6
ByLayer
 62
  256
370
  200
100
AcDbCircle
 10
-1000
 20
600
 40
778.226
100
AcDbArc
 50
243.479
 51
288.946
  0
LINE
  5
77
100
AcDbEntity
  8
0
  6
ByLayer
 62
  256
370
  200
100
AcDbLine
 10
-747.8798248758524
 20
-136.1723369504811
 11
-612.5818248758524
 21
-129.1833369504811
  0
LINE
  5
78
100
AcDbEntity
  8
0
  6
ByLayer
 62
  256
370
  200
100
AcDbLine
 10
-747.9214831832541
 20
-163.8259463035582
 11
-603.8664831832541
 21
-168.2589463035582
  0
ARC
  5
79
100
AcDbEntity
  8
0
  6
ByLayer
 62
  256
370
  200
100
AcDbCircle
 10
-295.067
 20
-2508.93
 40
2360.98
100
AcDbArc
 50
85.867
 51
97.52330000000001
  0
ARC
  5
7A
100
AcDbEntity
  8
0
  6
ByLayer
 62
  256
370
  200
100
AcDbCircle
 10
-471.45
 20
175.495
 40
336.011
100
AcDbArc
 50
244.986
 51
324.6
  0
ARC
  5
7B
100
AcDbEntity
  8
0
  6
ByLayer
 62
  256
370
  200
100
AcDbCircle
 10
-295.067
 20
-2508.93
 40
2326.98
100
AcDbArc
 50
84.07429999999999
 51
97.52330000000001
  0
ARC
  5
7C
100
AcDbEntity
  8
0
  6
ByLayer
 62
  256
370
  200
100
AcDbCircle
 10
-471.45
 20
175.495
 40
302.011
100
AcDbArc
 50
244.986
 51
336.721
  0
CIRCLE
  5
7D
100
AcDbEntity
  8
0
  6
ByLayer
 62
  256
370
  200
100
AcDbCircle
 10
0
 20
0
 40
198
  0
CIRCLE
  5
7E
100
AcDbEntity
  8
0
  6
ByLayer
 62
  256
370
  200
100
AcDbCircle
 10
8.93354e-13
 20
6.15162e-13
 40
172
  0
ARC
  5
7F
100
AcDbEntity
  8
0
  6
ByLayer
 62
  256
370
  200
100
AcDbCircle
 10
1560
 20
-22.77780000000003
 40
177.661
100
AcDbArc
 50
205.764
 51
289.738
  0
ARC
  5
80
100
AcDbEntity
  8
0
  6
ByLayer
 62
  256
370
  200
100
AcDbCircle
 10
1561.86
 20
12.06560000000004
 40
240.208
100
AcDbArc
 50
206.347
 51
286.511
  0
ARC
  5
81
100
AcDbEntity
  8
0
  6
ByLayer
 62
  256
370
  200
100
AcDbCircle
 10
1480
 20
-435
 40
248.244
100
AcDbArc
 50
87.14239999999999
 51
108.7999
  0
ARC
  5
82
100
AcDbEntity
  8
0
  6
ByLayer
 62
  256
370
  200
100
AcDbCircle
 10
1479.35
 20
-461.072
 40
244.317
100
AcDbArc
 50
87.63330000000001
 51
108.9524
  0
ARC
  5
83
100
AcDbEntity
  8
0
  6
ByLayer
 62
  256
370
  200
100
AcDbCircle
 10
1000
 20
600
 40
806.226
100
AcDbArc
 50
240.255
 51
299.745
  0
ARC
  5
84
100
AcDbEntity
  8
0
  6
ByLayer
 62
  256
370
  200
100
AcDbCircle
 10
1000
 20
-900
 40
806.226
100
AcDbArc
 50
60.255
 51
119.7449
  0
ARC
  5
85
100
AcDbEntity
  8
0
  6
ByLayer
 62
  256
370
  200
100
AcDbCircle
 10
1003.07
 20
-918.424
 40
794.6559999999999
100
AcDbArc
 50
60.03299999999999
 51
108.724
  0
ARC
  5
86
100
AcDbEntity
  8
0
  6
ByLayer
 62
  256
370
  200
100
AcDbCircle
 10
1000
 20
600
 40
776.226
100
AcDbArc
 50
251.0539999999999
 51
296.521
  0
LINE
  5
87
100
AcDbEntity
  8
0
  6
ByLayer
 62
  256
370
  200
100
AcDbLine
 10
747.9829999999999
 20
-165.825
 11
603.928
 21
-170.258
  0
LINE
  5
88
100
AcDbEntity
  8
0
  6
ByLayer
 62
  256
370
  200
100
AcDbLine
 10
747.9829999999999
 20
-134.175
 11
612.6849999999999
 21
-127.186
  0
ARC
  5
89
100
AcDbEntity
  8
0
  6
ByLayer
 62
  256
370
  200
100
AcDbCircle
 10
471.45
 20
175.495
 40
334.011
100
AcDbArc
 50
215.4
 51
295.014
  0
ARC
  5
8A
100
AcDbEntity
  8
0
  6
ByLayer
 62
  256
370
  200
100
AcDbCircle
 10
295.067
 20
-2508.93
 40
2358.98
100
AcDbArc
 50
82.47669999999999
 51
94.133
  0
ARC
  5
8B
100
AcDbEntity
  8
0
  6
ByLayer
 62
  256
370
  200
100
AcDbCircle
 10
295.067
 20
-2508.93
 40
2328.98
100
AcDbArc
 50
82.47669999999999
 51
95.92570000000001
  0
ARC
  5
8C
100
AcDbEntity
  8
0
  6
ByLayer
 62
  256
370
  200
100
AcDbCircle
 10
471.45
 20
175.495
 40
304.011
100
AcDbArc
 50
203.279
 51
295.014
  0
ARC
  5
8D
100
AcDbEntity
  8
0
  6
ByLayer
 62
  256
370
  200
100
AcDbCircle
 10
1611.004197473631
 20
-166.7007365600466
 40
54.97013152066362
100
AcDbArc
 50
290.3574425186649
 51
58.16446053304831
  0
ARC
  5
8E
100
AcDbEntity
  8
0
  6
ByLayer
 62
  256
370
  200
100
AcDbCircle
 10
1613.08554658813
 20
-150.1281512489504
 40
40.39917449824132
100
AcDbArc
 50
280.4175345987722
 51
48.22455261315612
  0
ARC
  5
8F
100
AcDbEntity
  8
0
  6
ByLayer
 62
  256
370
  200
100
AcDbCircle
 10
1561.86
 20
12.06560000000004
 40
238.208
100
AcDbArc
 50
206.347
 51
286.511
  0
ARC
  5
90
100
AcDbEntity
  8
0
  6
ByLayer
 62
  256
370
  200
100
AcDbCircle
 10
1611.004197473631
 20
-166.7007365600466
 40
52.97013152066362
100
AcDbArc
 50
290.3574425186649
 51
58.16446053304831
  0
ARC
  5
91
100
AcDbEntity
  8
0
  6
ByLayer
 62
  256
370
  200
100
AcDbCircle
 10
1613.08554658813
 20
-150.1281512489504
 40
42.39917449824132
100
AcDbArc
 50
280.4175345987722
 51
48.22455261315612
  0
ARC
  5
92
100
AcDbEntity
  8
0
  6
ByLayer
 62
  256
370
  200
100
AcDbCircle
 10
1560
 20
-22.77780000000003
 40
179.661
100
AcDbArc
 50
205.764
 51
289.738
  0
ARC
  5
93
100
AcDbEntity
  8
0
  6
ByLayer
 62
  256
370
  200
100
AcDbCircle
 10
1480
 20
-435
 40
246.244
100
AcDbArc
 50
87.14239999999999
 51
108.7999
  0
ARC
  5
94
100
AcDbEntity
  8
0
  6
ByLayer
 62
  256
370
  200
100
AcDbCircle
 10
1000
 20
-900
 40
804.226
100
AcDbArc
 50
60.255
 51
119.7449
  0
ARC
  5
95
100
AcDbEntity
  8
0
  6
ByLayer
 62
  256
370
  200
100
AcDbCircle
 10
1479.35
 20
-461.072
 40
246.317
100
AcDbArc
 50
87.63330000000001
 51
108.9524
  0
ARC
  5
96
100
AcDbEntity
  8
0
  6
ByLayer
 62
  256
370
  200
100
AcDbCircle
 10
1003.07
 20
-918.424
 40
796.6559999999999
100
AcDbArc
 50
60.03299999999999
 51
108.724
  0
ARC
  5
97
100
AcDbEntity
  8
0
  6
ByLayer
 62
  256
370
  200
100
AcDbCircle
 10
1000
 20
600
 40
804.226
100
AcDbArc
 50
240.255
 51
299.745
  0
ARC
  5
98
100
AcDbEntity
  8
0
  6
ByLayer
 62
  256
370
  200
100
AcDbCircle
 10
1000
 20
600
 40
778.226
100
AcDbArc
 50
251.0539999999999
 51
296.521
  0
LINE
  5
99
100
AcDbEntity
  8
0
  6
ByLayer
 62
  256
370
  200
100
AcDbLine
 10
747.8798248758524
 20
-136.1723369504811
 11
612.5818248758524
 21
-129.1833369504812
  0
LINE
  5
9A
100
AcDbEntity
  8
0
  6
ByLayer
 62
  256
370
  200
100
AcDbLine
 10
747.9214831832541
 20
-163.8259463035582
 11
603.8664831832541
 21
-168.2589463035582
  0
ARC
  5
9B
100
AcDbEntity
  8
0
  6
ByLayer
 62
  256
370
  200
100
AcDbCircle
 10
295.067
 20
-2508.93
 40
2360.98
100
AcDbArc
 50
82.47669999999999
 51
94.133
  0
ARC
  5
9C
100
AcDbEntity
  8
0
  6
ByLayer
 62
  256
370
  200
100
AcDbCircle
 10
471.45
 20
175.495
 40
336.011
100
AcDbArc
 50
215.4
 51
295.014
  0
ARC
  5
9D
100
AcDbEntity
  8
0
  6
ByLayer
 62
  256
370
  200
100
AcDbCircle
 10
295.067
 20
-2508.93
 40
2326.98
100
AcDbArc
 50
82.47669999999999
 51
95.92570000000001
  0
ARC
  5
9E
100
AcDbEntity
  8
0
  6
ByLayer
 62
  256
370
  200
100
AcDbCircle
 10
471.45
 20
175.495
 40
302.011
100
AcDbArc
 50
203.279
 51
295.014
  0
ENDSEC
  0
SECTION
  2
OBJECTS
  0
DICTIONARY
  5
C
330
0
100
AcDbDictionary
281
    1
  3
ACAD_GROUP
350
D
  0
DICTIONARY
  5
D
330
C
100
AcDbDictionary
281
    1
  0
PLOTSETTINGS
  5
9F
100
AcDbPlotSettings
  6
1x1
 40
0
 41
0
 42
0
 43
0
  0
ENDSEC
  0
EOF
